mtllib output.mtl
v 1 1 1
v -1 1 1
v -1 -1 1
v 1 1 1
v -1 -1 1
v 1 -1 1
v 1 -1 -1
v 1 -1 1
v -1 -1 1
v 1 -1 -1
v -1 -1 1
v -1 -1 -1
v -1 -1 -1
v -1 -1 1
v -1 1 1
v -1 -1 -1
v -1 1 1
v -1 1 -1
v -1 1 -1
v 1 1 -1
v 1 -1 -1
v -1 1 -1
v 1 -1 -1
v -1 -1 -1
v 1 1 -1
v 1 1 1
v 1 -1 1
v 1 1 -1
v 1 -1 1
v 1 -1 -1
v -1 1 -1
v -1 1 1
v 1 1 1
v -1 1 -1
v 1 1 1
v 1 1 -1
vt 0.494438 0.324617
vt 0.494438 0.0123554
vt 0.25791 0.0133716
vt 0.494438 0.324617
vt 0.25791 0.0133716
vt 0.25791 0.325633
vt 0.246897 0.654529
vt 0.246897 0.342775
vt 0.0104211 0.343114
vt 0.246897 0.654529
vt 0.0104211 0.343114
vt 0.0104211 0.654868
vt 0.989825 0.655149
vt 0.989825 0.342818
vt 0.753062 0.342479
vt 0.989825 0.655149
vt 0.753062 0.342479
vt 0.753062 0.65481
vt 0.494444 0.983749
vt 0.494444 0.671488
vt 0.257927 0.671488
vt 0.494444 0.983749
vt 0.257927 0.671488
vt 0.257927 0.983749
vt 0.494415 0.655872
vt 0.494415 0.342594
vt 0.257597 0.342255
vt 0.494415 0.655872
vt 0.257597 0.342255
vt 0.257597 0.655533
vt 0.74277 0.655019
vt 0.74277 0.342343
vt 0.505431 0.342681
vt 0.74277 0.655019
vt 0.505431 0.342681
vt 0.505431 0.655357
vn 0 -0 1
vn 0 -0 1
vn 0 -0 1
vn 0 -0 1
vn 0 -0 1
vn 0 -0 1
vn 0 -1 0
vn 0 -1 0
vn 0 -1 0
vn 0 -1 0
vn 0 -1 0
vn 0 -1 0
vn -1 -0 0
vn -1 -0 0
vn -1 -0 0
vn -1 -0 0
vn -1 -0 0
vn -1 -0 0
vn 0 -0 -1
vn 0 -0 -1
vn 0 -0 -1
vn 0 -0 -1
vn 0 -0 -1
vn 0 -0 -1
vn 1 -0 0
vn 1 -0 0
vn 1 -0 0
vn 1 -0 0
vn 1 -0 0
vn 1 -0 0
vn 0 1 0
vn 0 1 0
vn 0 1 0
vn 0 1 0
vn 0 1 0
vn 0 1 0
usemtl Material
f 1/1/1 2/2/2 3/3/3
f 4/4/4 5/5/5 6/6/6
f 7/7/7 8/8/8 9/9/9
f 10/10/10 11/11/11 12/12/12
f 13/13/13 14/14/14 15/15/15
f 16/16/16 17/17/17 18/18/18
f 19/19/19 20/20/20 21/21/21
f 22/22/22 23/23/23 24/24/24
f 25/25/25 26/26/26 27/27/27
f 28/28/28 29/29/29 30/30/30
f 31/31/31 32/32/32 33/33/33
f 34/34/34 35/35/35 36/36/36
