# Blender 4.3.2
# www.blender.org
mtllib colored_cube2.mtl
o output
v 1.000000 1.000000 -1.000000
v 1.000000 -1.000000 -1.000000
v 1.000000 1.000000 1.000000
v 1.000000 -1.000000 1.000000
v -1.000000 1.000000 -1.000000
v -1.000000 -1.000000 -1.000000
v -1.000000 1.000000 1.000000
v -1.000000 -1.000000 1.000000
v 1.000000 1.000000 -1.000000
v 1.000000 -1.000000 -1.000000
v 1.000000 1.000000 1.000000
v 1.000000 -1.000000 1.000000
v -1.000000 1.000000 -1.000000
v -1.000000 -1.000000 -1.000000
v -1.000000 1.000000 1.000000
v -1.000000 -1.000000 1.000000
v 1.000000 1.000000 -1.000000
v 1.000000 -1.000000 -1.000000
v 1.000000 1.000000 1.000000
v 1.000000 -1.000000 1.000000
v -1.000000 1.000000 -1.000000
v -1.000000 -1.000000 -1.000000
v -1.000000 1.000000 1.000000
v -1.000000 -1.000000 1.000000
vn -0.0000 1.0000 -0.0000
vn -0.0000 -1.0000 -0.0000
vn -0.0000 -0.0000 1.0000
vn -0.0000 -0.0000 -1.0000
vn -1.0000 -0.0000 -0.0000
vn 1.0000 -0.0000 -0.0000
vt 0.625000 0.500000
vt 0.875000 0.500000
vt 0.875000 0.250000
vt 0.625000 0.250000
vt 0.125000 0.500000
vt 0.375000 0.500000
vt 0.375000 0.250000
vt 0.125000 0.250000
vt 0.625000 0.000000
vt 0.375000 0.000000
vt 0.375000 0.750000
vt 0.625000 0.750000
vt 0.375000 1.000000
vt 0.625000 1.000000
s 1
usemtl Material.001
f 1/1/1 5/2/1 7/3/1
f 1/1/1 7/3/1 3/4/1
usemtl Material.002
f 12/7/3 11/4/3 15/9/3
f 12/7/3 15/9/3 16/10/3
usemtl Material.003
f 24/13/5 23/14/5 21/12/5
f 24/13/5 21/12/5 22/11/5
usemtl Material.004
f 6/5/2 2/6/2 4/7/2
f 6/5/2 4/7/2 8/8/2
usemtl Material.005
f 18/6/6 17/1/6 19/4/6
f 18/6/6 19/4/6 20/7/6
usemtl Material.006
f 14/11/4 13/12/4 9/1/4
f 14/11/4 9/1/4 10/6/4
