# Blender 4.3.2
# www.blender.org
mtllib minecraft_sheep.mtl
g Object_6_Mesh
v 0.250000 1.125000 -0.500000
v 0.250000 0.750000 -0.500000
v 0.250000 1.125000 0.500000
v 0.250000 0.750000 0.500000
v -0.250000 0.750000 -0.500000
v -0.250000 1.125000 -0.500000
v -0.250000 0.750000 0.500000
v -0.250000 1.125000 0.500000
v -0.250000 0.750000 -0.500000
v 0.250000 0.750000 -0.500000
v -0.250000 1.125000 -0.500000
v 0.250000 1.125000 -0.500000
v -0.250000 1.125000 0.500000
v 0.250000 1.125000 0.500000
v -0.250000 0.750000 0.500000
v 0.250000 0.750000 0.500000
v -0.250000 1.125000 -0.500000
v 0.250000 1.125000 -0.500000
v -0.250000 1.125000 0.500000
v 0.250000 1.125000 0.500000
v 0.250000 0.750000 -0.500000
v -0.250000 0.750000 -0.500000
v 0.250000 0.750000 0.500000
v -0.250000 0.750000 0.500000
vn 1.0000 -0.0000 -0.0000
vn -1.0000 -0.0000 -0.0000
vn -0.0000 -0.0000 -1.0000
vn -0.0000 -0.0000 1.0000
vn -0.0000 1.0000 -0.0000
vn -0.0000 -1.0000 -0.0000
vt 0.437744 0.218994
vt 0.437744 0.468506
vt 0.531006 0.218994
vt 0.531006 0.468506
vt 0.656494 0.218994
vt 0.656494 0.468506
vt 0.749756 0.218994
vt 0.749756 0.468506
vt 0.656006 0.218506
vt 0.656006 0.125244
vt 0.531494 0.218506
vt 0.531494 0.125244
vt 0.781006 0.125244
vt 0.781006 0.218506
vt 0.656494 0.125244
vt 0.656494 0.218506
vt 0.750244 0.218994
vt 0.750244 0.468506
vt 0.874756 0.218994
vt 0.874756 0.468506
vt 0.531494 0.218994
vt 0.531494 0.468506
vt 0.656006 0.218994
vt 0.656006 0.468506
s 0
g off
g Object_6_material_0
usemtl material_0
f 1/1/1 3/2/1 2/3/1
f 3/2/1 4/4/1 2/3/1
f 5/5/2 7/6/2 6/7/2
f 7/6/2 8/8/2 6/7/2
f 9/9/3 11/10/3 10/11/3
f 11/10/3 12/12/3 10/11/3
f 13/13/4 15/14/4 14/15/4
f 15/14/4 16/16/4 14/15/4
f 17/17/5 19/18/5 18/19/5
f 19/18/5 20/20/5 18/19/5
f 21/21/6 23/22/6 22/23/6
f 23/22/6 24/24/6 22/23/6
g Object_8_Mesh
v 0.359375 1.234375 -0.609375
v 0.359375 0.640625 -0.609375
v 0.359375 1.234375 0.609375
v 0.359375 0.640625 0.609375
v -0.359375 0.640625 -0.609375
v -0.359375 1.234375 -0.609375
v -0.359375 0.640625 0.609375
v -0.359375 1.234375 0.609375
v -0.359375 0.640625 -0.609375
v 0.359375 0.640625 -0.609375
v -0.359375 1.234375 -0.609375
v 0.359375 1.234375 -0.609375
v -0.359375 1.234375 0.609375
v 0.359375 1.234375 0.609375
v -0.359375 0.640625 0.609375
v 0.359375 0.640625 0.609375
v -0.359375 1.234375 -0.609375
v 0.359375 1.234375 -0.609375
v -0.359375 1.234375 0.609375
v 0.359375 1.234375 0.609375
v 0.359375 0.640625 -0.609375
v -0.359375 0.640625 -0.609375
v 0.359375 0.640625 0.609375
v -0.359375 0.640625 0.609375
vn 1.0000 -0.0000 -0.0000
vn -1.0000 -0.0000 -0.0000
vn -0.0000 -0.0000 -1.0000
vn -0.0000 -0.0000 1.0000
vn -0.0000 1.0000 -0.0000
vn -0.0000 -1.0000 -0.0000
vt 0.437744 0.718994
vt 0.437744 0.968506
vt 0.531006 0.718994
vt 0.531006 0.968506
vt 0.656494 0.718994
vt 0.656494 0.968506
vt 0.749756 0.718994
vt 0.749756 0.968506
vt 0.656006 0.718506
vt 0.656006 0.625244
vt 0.531494 0.718506
vt 0.531494 0.625244
vt 0.781006 0.625244
vt 0.781006 0.718506
vt 0.656494 0.625244
vt 0.656494 0.718506
vt 0.750244 0.718994
vt 0.750244 0.968506
vt 0.874756 0.718994
vt 0.874756 0.968506
vt 0.531494 0.718994
vt 0.531494 0.968506
vt 0.656006 0.718994
vt 0.656006 0.968506
s 0
g off
g Object_8_material_0
usemtl material_0
f 25/25/7 27/26/7 26/27/7
f 27/26/7 28/28/7 26/27/7
f 29/29/8 31/30/8 30/31/8
f 31/30/8 32/32/8 30/31/8
f 33/33/9 35/34/9 34/35/9
f 35/34/9 36/36/9 34/35/9
f 37/37/10 39/38/10 38/39/10
f 39/38/10 40/40/10 38/39/10
f 41/41/11 43/42/11 42/43/11
f 43/42/11 44/44/11 42/43/11
f 45/45/12 47/46/12 46/47/12
f 47/46/12 48/48/12 46/47/12
g Object_11_Mesh
v 0.170814 1.401566 -0.412735
v 0.256319 1.272809 -0.888246
v 0.159506 1.039258 -0.316663
v 0.245011 0.910500 -0.792174
v -0.112984 1.267133 -0.953116
v -0.198489 1.395891 -0.477605
v -0.124292 0.904825 -0.857044
v -0.209797 1.033582 -0.381534
v -0.112984 1.267133 -0.953116
v 0.256319 1.272809 -0.888246
v -0.198489 1.395891 -0.477605
v 0.170814 1.401566 -0.412735
v -0.209797 1.033582 -0.381534
v 0.159506 1.039258 -0.316663
v -0.124292 0.904825 -0.857044
v 0.245011 0.910500 -0.792174
v -0.198489 1.395891 -0.477605
v 0.170814 1.401566 -0.412735
v -0.209797 1.033582 -0.381534
v 0.159506 1.039258 -0.316663
v 0.256319 1.272809 -0.888246
v -0.112984 1.267133 -0.953116
v 0.245011 0.910500 -0.792174
v -0.124292 0.904825 -0.857044
vn 0.9848 0.0151 0.1730
vn -0.9848 -0.0151 -0.1730
vn 0.0302 0.9662 -0.2562
vn -0.0302 -0.9662 0.2562
vn -0.1710 0.2575 0.9510
vn 0.1710 -0.2575 -0.9510
vt 0.000244 0.125244
vt 0.000244 0.218506
vt 0.124756 0.125244
vt 0.124756 0.218506
vt 0.218994 0.125244
vt 0.218994 0.218506
vt 0.343506 0.125244
vt 0.343506 0.218506
vt 0.218506 0.124756
vt 0.218506 0.000244
vt 0.125244 0.124756
vt 0.125244 0.000244
vt 0.312256 0.000244
vt 0.312256 0.124756
vt 0.218994 0.000244
vt 0.218994 0.124756
vt 0.343994 0.125244
vt 0.343994 0.218506
vt 0.437256 0.125244
vt 0.437256 0.218506
vt 0.125244 0.125244
vt 0.125244 0.218506
vt 0.218506 0.125244
vt 0.218506 0.218506
s 0
g off
g Object_11_material_0
usemtl material_0
f 49/49/13 51/50/13 50/51/13
f 51/50/13 52/52/13 50/51/13
f 53/53/14 55/54/14 54/55/14
f 55/54/14 56/56/14 54/55/14
f 57/57/15 59/58/15 58/59/15
f 59/58/15 60/60/15 58/59/15
f 61/61/16 63/62/16 62/63/16
f 63/62/16 64/64/16 62/63/16
f 65/65/17 67/66/17 66/67/17
f 67/66/17 68/68/17 66/67/17
f 69/69/18 71/70/18 70/71/18
f 71/70/18 72/72/18 70/71/18
g Object_13_Mesh
v 0.202462 1.448022 -0.380192
v 0.279416 1.332140 -0.808152
v 0.188893 1.013251 -0.264906
v 0.265847 0.897370 -0.692866
v -0.163747 1.325329 -0.885996
v -0.240702 1.441211 -0.458036
v -0.177316 0.890559 -0.770710
v -0.254271 1.006441 -0.342750
v -0.163747 1.325329 -0.885996
v 0.279416 1.332140 -0.808152
v -0.240702 1.441211 -0.458036
v 0.202462 1.448022 -0.380192
v -0.254271 1.006441 -0.342750
v 0.188893 1.013251 -0.264906
v -0.177316 0.890559 -0.770710
v 0.265847 0.897370 -0.692866
v -0.240702 1.441211 -0.458036
v 0.202462 1.448022 -0.380192
v -0.254271 1.006441 -0.342750
v 0.188893 1.013251 -0.264906
v 0.279416 1.332140 -0.808152
v -0.163747 1.325329 -0.885996
v 0.265847 0.897370 -0.692866
v -0.177316 0.890559 -0.770710
vn 0.9848 0.0151 0.1730
vn -0.9848 -0.0151 -0.1730
vn 0.0302 0.9662 -0.2562
vn -0.0302 -0.9662 0.2562
vn -0.1710 0.2575 0.9510
vn 0.1710 -0.2575 -0.9510
vt 0.000244 0.593994
vt 0.000244 0.687256
vt 0.093506 0.593994
vt 0.093506 0.687256
vt 0.187744 0.593994
vt 0.187744 0.687256
vt 0.281006 0.593994
vt 0.281006 0.687256
vt 0.187256 0.593506
vt 0.187256 0.500244
vt 0.093994 0.593506
vt 0.093994 0.500244
vt 0.281006 0.500244
vt 0.281006 0.593506
vt 0.187744 0.500244
vt 0.187744 0.593506
vt 0.281494 0.593994
vt 0.281494 0.687256
vt 0.374756 0.593994
vt 0.374756 0.687256
vt 0.093994 0.593994
vt 0.093994 0.687256
vt 0.187256 0.593994
vt 0.187256 0.687256
s 0
g off
g Object_13_material_0
usemtl material_0
f 73/73/19 75/74/19 74/75/19
f 75/74/19 76/76/19 74/75/19
f 77/77/20 79/78/20 78/79/20
f 79/78/20 80/80/20 78/79/20
f 81/81/21 83/82/21 82/83/21
f 83/82/21 84/84/21 82/83/21
f 85/85/22 87/86/22 86/87/22
f 87/86/22 88/88/22 86/87/22
f 89/89/23 91/90/23 90/91/23
f 91/90/23 92/92/23 90/91/23
f 93/93/24 95/94/24 94/95/24
f 95/94/24 96/96/24 94/95/24
g Object_16_Mesh
v 0.312500 0.733684 0.561431
v 0.312500 0.766316 0.313569
v 0.312500 -0.009899 0.463536
v 0.312500 0.022732 0.215675
v 0.062500 0.766316 0.313569
v 0.062500 0.733684 0.561431
v 0.062500 0.022732 0.215675
v 0.062500 -0.009899 0.463536
v 0.062500 0.766316 0.313569
v 0.312500 0.766316 0.313569
v 0.062500 0.733684 0.561431
v 0.312500 0.733684 0.561431
v 0.062500 -0.009899 0.463536
v 0.312500 -0.009899 0.463536
v 0.062500 0.022732 0.215675
v 0.312500 0.022732 0.215675
v 0.062500 0.733684 0.561431
v 0.312500 0.733684 0.561431
v 0.062500 -0.009899 0.463536
v 0.312500 -0.009899 0.463536
v 0.312500 0.766316 0.313569
v 0.062500 0.766316 0.313569
v 0.312500 0.022732 0.215675
v 0.062500 0.022732 0.215675
vn 1.0000 -0.0000 -0.0000
vn -1.0000 -0.0000 -0.0000
vn -0.0000 0.9914 0.1305
vn -0.0000 -0.9914 -0.1305
vn -0.0000 -0.1305 0.9914
vn -0.0000 0.1305 -0.9914
vt 0.000244 0.312744
vt 0.000244 0.499756
vt 0.062256 0.312744
vt 0.062256 0.499756
vt 0.125244 0.312744
vt 0.125244 0.499756
vt 0.187256 0.312744
vt 0.187256 0.499756
vt 0.124756 0.312256
vt 0.124756 0.250244
vt 0.062744 0.312256
vt 0.062744 0.250244
vt 0.187256 0.250244
vt 0.187256 0.312256
vt 0.125244 0.250244
vt 0.125244 0.312256
vt 0.187744 0.312744
vt 0.187744 0.499756
vt 0.249756 0.312744
vt 0.249756 0.499756
vt 0.062744 0.312744
vt 0.062744 0.499756
vt 0.124756 0.312744
vt 0.124756 0.499756
s 0
g off
g Object_16_material_0
usemtl material_0
f 97/97/25 99/98/25 98/99/25
f 99/98/25 100/100/25 98/99/25
f 101/101/26 103/102/26 102/103/26
f 103/102/26 104/104/26 102/103/26
f 105/105/27 107/106/27 106/107/27
f 107/106/27 108/108/27 106/107/27
f 109/109/28 111/110/28 110/111/28
f 111/110/28 112/112/28 110/111/28
f 113/113/29 115/114/29 114/115/29
f 115/114/29 116/116/29 114/115/29
f 117/117/30 119/118/30 118/119/30
f 119/118/30 120/120/30 118/119/30
g Object_18_Mesh
v 0.343750 0.760588 0.596492
v 0.343750 0.801378 0.286666
v 0.343750 0.326831 0.539387
v 0.343750 0.367620 0.229561
v 0.031250 0.801378 0.286666
v 0.031250 0.760588 0.596492
v 0.031250 0.367620 0.229561
v 0.031250 0.326831 0.539387
v 0.031250 0.801378 0.286666
v 0.343750 0.801378 0.286666
v 0.031250 0.760588 0.596492
v 0.343750 0.760588 0.596492
v 0.031250 0.326831 0.539387
v 0.343750 0.326831 0.539387
v 0.031250 0.367620 0.229561
v 0.343750 0.367620 0.229561
v 0.031250 0.760588 0.596492
v 0.343750 0.760588 0.596492
v 0.031250 0.326831 0.539387
v 0.343750 0.326831 0.539387
v 0.343750 0.801378 0.286666
v 0.031250 0.801378 0.286666
v 0.343750 0.367620 0.229561
v 0.031250 0.367620 0.229561
vn 1.0000 -0.0000 -0.0000
vn -1.0000 -0.0000 -0.0000
vn -0.0000 0.9914 0.1305
vn -0.0000 -0.9914 -0.1305
vn -0.0000 -0.1305 0.9914
vn -0.0000 0.1305 -0.9914
vt 0.000244 0.812744
vt 0.000244 0.906006
vt 0.062256 0.812744
vt 0.062256 0.906006
vt 0.125244 0.812744
vt 0.125244 0.906006
vt 0.187256 0.812744
vt 0.187256 0.906006
vt 0.124756 0.812256
vt 0.124756 0.750244
vt 0.062744 0.812256
vt 0.062744 0.750244
vt 0.187256 0.750244
vt 0.187256 0.812256
vt 0.125244 0.750244
vt 0.125244 0.812256
vt 0.187744 0.812744
vt 0.187744 0.906006
vt 0.249756 0.812744
vt 0.249756 0.906006
vt 0.062744 0.812744
vt 0.062744 0.906006
vt 0.124756 0.812744
vt 0.124756 0.906006
s 0
g off
g Object_18_material_0
usemtl material_0
f 121/121/31 123/122/31 122/123/31
f 123/122/31 124/124/31 122/123/31
f 125/125/32 127/126/32 126/127/32
f 127/126/32 128/128/32 126/127/32
f 129/129/33 131/130/33 130/131/33
f 131/130/33 132/132/33 130/131/33
f 133/133/34 135/134/34 134/135/34
f 135/134/34 136/136/34 134/135/34
f 137/137/35 139/138/35 138/139/35
f 139/138/35 140/140/35 138/139/35
f 141/141/36 143/142/36 142/143/36
f 143/142/36 144/144/36 142/143/36
g Object_21_Mesh
v -0.062500 0.760895 0.562024
v -0.062500 0.739106 0.312976
v -0.062500 0.013748 0.627391
v -0.062500 -0.008041 0.378343
v -0.312500 0.739106 0.312976
v -0.312500 0.760895 0.562024
v -0.312500 -0.008041 0.378343
v -0.312500 0.013748 0.627391
v -0.312500 0.739106 0.312976
v -0.062500 0.739106 0.312976
v -0.312500 0.760895 0.562024
v -0.062500 0.760895 0.562024
v -0.312500 0.013748 0.627391
v -0.062500 0.013748 0.627391
v -0.312500 -0.008041 0.378343
v -0.062500 -0.008041 0.378343
v -0.312500 0.760895 0.562024
v -0.062500 0.760895 0.562024
v -0.312500 0.013748 0.627391
v -0.062500 0.013748 0.627391
v -0.062500 0.739106 0.312976
v -0.312500 0.739106 0.312976
v -0.062500 -0.008041 0.378343
v -0.312500 -0.008041 0.378343
vn 1.0000 -0.0000 -0.0000
vn -1.0000 -0.0000 -0.0000
vn -0.0000 0.9962 -0.0872
vn -0.0000 -0.9962 0.0872
vn -0.0000 0.0872 0.9962
vn -0.0000 -0.0872 -0.9962
vt 0.000244 0.312744
vt 0.000244 0.499756
vt 0.062256 0.312744
vt 0.062256 0.499756
vt 0.125244 0.312744
vt 0.125244 0.499756
vt 0.187256 0.312744
vt 0.187256 0.499756
vt 0.124756 0.312256
vt 0.124756 0.250244
vt 0.062744 0.312256
vt 0.062744 0.250244
vt 0.187256 0.250244
vt 0.187256 0.312256
vt 0.125244 0.250244
vt 0.125244 0.312256
vt 0.187744 0.312744
vt 0.187744 0.499756
vt 0.249756 0.312744
vt 0.249756 0.499756
vt 0.062744 0.312744
vt 0.062744 0.499756
vt 0.124756 0.312744
vt 0.124756 0.499756
s 0
g off
g Object_21_material_0
usemtl material_0
f 145/145/37 147/146/37 146/147/37
f 147/146/37 148/148/37 146/147/37
f 149/149/38 151/150/38 150/151/38
f 151/150/38 152/152/38 150/151/38
f 153/153/39 155/154/39 154/155/39
f 155/154/39 156/156/39 154/155/39
f 157/157/40 159/158/40 158/159/40
f 159/158/40 160/160/40 158/159/40
f 161/161/41 163/162/41 162/163/41
f 163/162/41 164/164/41 162/163/41
f 165/165/42 167/166/42 166/167/42
f 167/166/42 168/168/42 166/167/42
g Object_23_Mesh
v -0.031250 0.794749 0.590432
v -0.031250 0.767513 0.279121
v -0.031250 0.358914 0.628563
v -0.031250 0.331678 0.317252
v -0.343750 0.767513 0.279121
v -0.343750 0.794749 0.590432
v -0.343750 0.331678 0.317252
v -0.343750 0.358914 0.628563
v -0.343750 0.767513 0.279121
v -0.031250 0.767513 0.279121
v -0.343750 0.794749 0.590432
v -0.031250 0.794749 0.590432
v -0.343750 0.358914 0.628563
v -0.031250 0.358914 0.628563
v -0.343750 0.331678 0.317252
v -0.031250 0.331678 0.317252
v -0.343750 0.794749 0.590432
v -0.031250 0.794749 0.590432
v -0.343750 0.358914 0.628563
v -0.031250 0.358914 0.628563
v -0.031250 0.767513 0.279121
v -0.343750 0.767513 0.279121
v -0.031250 0.331678 0.317252
v -0.343750 0.331678 0.317252
vn 1.0000 -0.0000 -0.0000
vn -1.0000 -0.0000 -0.0000
vn -0.0000 0.9962 -0.0872
vn -0.0000 -0.9962 0.0872
vn -0.0000 0.0872 0.9962
vn -0.0000 -0.0872 -0.9962
vt 0.000244 0.812744
vt 0.000244 0.906006
vt 0.062256 0.812744
vt 0.062256 0.906006
vt 0.125244 0.812744
vt 0.125244 0.906006
vt 0.187256 0.812744
vt 0.187256 0.906006
vt 0.124756 0.812256
vt 0.124756 0.750244
vt 0.062744 0.812256
vt 0.062744 0.750244
vt 0.187256 0.750244
vt 0.187256 0.812256
vt 0.125244 0.750244
vt 0.125244 0.812256
vt 0.187744 0.812744
vt 0.187744 0.906006
vt 0.249756 0.812744
vt 0.249756 0.906006
vt 0.062744 0.812744
vt 0.062744 0.906006
vt 0.124756 0.812744
vt 0.124756 0.906006
s 0
g off
g Object_23_material_0
usemtl material_0
f 169/169/43 171/170/43 170/171/43
f 171/170/43 172/172/43 170/171/43
f 173/173/44 175/174/44 174/175/44
f 175/174/44 176/176/44 174/175/44
f 177/177/45 179/178/45 178/179/45
f 179/178/45 180/180/45 178/179/45
f 181/181/46 183/182/46 182/183/46
f 183/182/46 184/184/46 182/183/46
f 185/185/47 187/186/47 186/187/47
f 187/186/47 188/188/47 186/187/47
f 189/189/48 191/190/48 190/191/48
f 191/190/48 192/192/48 190/191/48
g Object_26_Mesh
v 0.312500 0.766316 -0.188569
v 0.312500 0.733684 -0.436431
v 0.312500 0.022732 -0.090675
v 0.312500 -0.009899 -0.338536
v 0.062500 0.733684 -0.436431
v 0.062500 0.766316 -0.188569
v 0.062500 -0.009899 -0.338536
v 0.062500 0.022732 -0.090675
v 0.062500 0.733684 -0.436431
v 0.312500 0.733684 -0.436431
v 0.062500 0.766316 -0.188569
v 0.312500 0.766316 -0.188569
v 0.062500 0.022732 -0.090675
v 0.312500 0.022732 -0.090675
v 0.062500 -0.009899 -0.338536
v 0.312500 -0.009899 -0.338536
v 0.062500 0.766316 -0.188569
v 0.312500 0.766316 -0.188569
v 0.062500 0.022732 -0.090675
v 0.312500 0.022732 -0.090675
v 0.312500 0.733684 -0.436431
v 0.062500 0.733684 -0.436431
v 0.312500 -0.009899 -0.338536
v 0.062500 -0.009899 -0.338536
vn 1.0000 -0.0000 -0.0000
vn -1.0000 -0.0000 -0.0000
vn -0.0000 0.9914 -0.1305
vn -0.0000 -0.9914 0.1305
vn -0.0000 0.1305 0.9914
vn -0.0000 -0.1305 -0.9914
vt 0.000244 0.312744
vt 0.000244 0.499756
vt 0.062256 0.312744
vt 0.062256 0.499756
vt 0.125244 0.312744
vt 0.125244 0.499756
vt 0.187256 0.312744
vt 0.187256 0.499756
vt 0.124756 0.312256
vt 0.124756 0.250244
vt 0.062744 0.312256
vt 0.062744 0.250244
vt 0.187256 0.250244
vt 0.187256 0.312256
vt 0.125244 0.250244
vt 0.125244 0.312256
vt 0.187744 0.312744
vt 0.187744 0.499756
vt 0.249756 0.312744
vt 0.249756 0.499756
vt 0.062744 0.312744
vt 0.062744 0.499756
vt 0.124756 0.312744
vt 0.124756 0.499756
s 0
g off
g Object_26_material_0
usemtl material_0
f 193/193/49 195/194/49 194/195/49
f 195/194/49 196/196/49 194/195/49
f 197/197/50 199/198/50 198/199/50
f 199/198/50 200/200/50 198/199/50
f 201/201/51 203/202/51 202/203/51
f 203/202/51 204/204/51 202/203/51
f 205/205/52 207/206/52 206/207/52
f 207/206/52 208/208/52 206/207/52
f 209/209/53 211/210/53 210/211/53
f 211/210/53 212/212/53 210/211/53
f 213/213/54 215/214/54 214/215/54
f 215/214/54 216/216/54 214/215/54
g Object_28_Mesh
v 0.343750 0.801378 -0.161666
v 0.343750 0.760588 -0.471492
v 0.343750 0.367620 -0.104560
v 0.343750 0.326831 -0.414387
v 0.031250 0.760588 -0.471492
v 0.031250 0.801378 -0.161666
v 0.031250 0.326831 -0.414387
v 0.031250 0.367620 -0.104560
v 0.031250 0.760588 -0.471492
v 0.343750 0.760588 -0.471492
v 0.031250 0.801378 -0.161666
v 0.343750 0.801378 -0.161666
v 0.031250 0.367620 -0.104560
v 0.343750 0.367620 -0.104560
v 0.031250 0.326831 -0.414387
v 0.343750 0.326831 -0.414387
v 0.031250 0.801378 -0.161666
v 0.343750 0.801378 -0.161666
v 0.031250 0.367620 -0.104560
v 0.343750 0.367620 -0.104560
v 0.343750 0.760588 -0.471492
v 0.031250 0.760588 -0.471492
v 0.343750 0.326831 -0.414387
v 0.031250 0.326831 -0.414387
vn 1.0000 -0.0000 -0.0000
vn -1.0000 -0.0000 -0.0000
vn -0.0000 0.9914 -0.1305
vn -0.0000 -0.9914 0.1305
vn -0.0000 0.1305 0.9914
vn -0.0000 -0.1305 -0.9914
vt 0.000244 0.812744
vt 0.000244 0.906006
vt 0.062256 0.812744
vt 0.062256 0.906006
vt 0.125244 0.812744
vt 0.125244 0.906006
vt 0.187256 0.812744
vt 0.187256 0.906006
vt 0.124756 0.812256
vt 0.124756 0.750244
vt 0.062744 0.812256
vt 0.062744 0.750244
vt 0.187256 0.750244
vt 0.187256 0.812256
vt 0.125244 0.750244
vt 0.125244 0.812256
vt 0.187744 0.812744
vt 0.187744 0.906006
vt 0.249756 0.812744
vt 0.249756 0.906006
vt 0.062744 0.812744
vt 0.062744 0.906006
vt 0.124756 0.812744
vt 0.124756 0.906006
s 0
g off
g Object_28_material_0
usemtl material_0
f 217/217/55 219/218/55 218/219/55
f 219/218/55 220/220/55 218/219/55
f 221/221/56 223/222/56 222/223/56
f 223/222/56 224/224/56 222/223/56
f 225/225/57 227/226/57 226/227/57
f 227/226/57 228/228/57 226/227/57
f 229/229/58 231/230/58 230/231/58
f 231/230/58 232/232/58 230/231/58
f 233/233/59 235/234/59 234/235/59
f 235/234/59 236/236/59 234/235/59
f 237/237/60 239/238/60 238/239/60
f 239/238/60 240/240/60 238/239/60
g Object_31_Mesh
v -0.062500 0.722945 -0.190463
v -0.062500 0.777055 -0.434537
v -0.062500 -0.009277 -0.352793
v -0.062500 0.044833 -0.596867
v -0.312500 0.777055 -0.434537
v -0.312500 0.722945 -0.190463
v -0.312500 0.044833 -0.596867
v -0.312500 -0.009277 -0.352793
v -0.312500 0.777055 -0.434537
v -0.062500 0.777055 -0.434537
v -0.312500 0.722945 -0.190463
v -0.062500 0.722945 -0.190463
v -0.312500 -0.009277 -0.352793
v -0.062500 -0.009277 -0.352793
v -0.312500 0.044833 -0.596867
v -0.062500 0.044833 -0.596867
v -0.312500 0.722945 -0.190463
v -0.062500 0.722945 -0.190463
v -0.312500 -0.009277 -0.352793
v -0.062500 -0.009277 -0.352793
v -0.062500 0.777055 -0.434537
v -0.312500 0.777055 -0.434537
v -0.062500 0.044833 -0.596867
v -0.312500 0.044833 -0.596867
vn 1.0000 -0.0000 -0.0000
vn -1.0000 -0.0000 -0.0000
vn -0.0000 0.9763 0.2164
vn -0.0000 -0.9763 -0.2164
vn -0.0000 -0.2164 0.9763
vn -0.0000 0.2164 -0.9763
vt 0.000244 0.312744
vt 0.000244 0.499756
vt 0.062256 0.312744
vt 0.062256 0.499756
vt 0.125244 0.312744
vt 0.125244 0.499756
vt 0.187256 0.312744
vt 0.187256 0.499756
vt 0.124756 0.312256
vt 0.124756 0.250244
vt 0.062744 0.312256
vt 0.062744 0.250244
vt 0.187256 0.250244
vt 0.187256 0.312256
vt 0.125244 0.250244
vt 0.125244 0.312256
vt 0.187744 0.312744
vt 0.187744 0.499756
vt 0.249756 0.312744
vt 0.249756 0.499756
vt 0.062744 0.312744
vt 0.062744 0.499756
vt 0.124756 0.312744
vt 0.124756 0.499756
s 0
g off
g Object_31_material_0
usemtl material_0
f 241/241/61 243/242/61 242/243/61
f 243/242/61 244/244/61 242/243/61
f 245/245/62 247/246/62 246/247/62
f 247/246/62 248/248/62 246/247/62
f 249/249/63 251/250/63 250/251/63
f 251/250/63 252/252/63 250/251/63
f 253/253/64 255/254/64 254/255/64
f 255/254/64 256/256/64 254/255/64
f 257/257/65 259/258/65 258/259/65
f 259/258/65 260/260/65 258/259/65
f 261/261/66 263/262/66 262/263/66
f 263/262/66 264/264/66 262/263/66
g Object_33_Mesh
v -0.031250 0.746691 -0.153190
v -0.031250 0.814328 -0.458283
v -0.031250 0.319561 -0.247882
v -0.031250 0.387199 -0.552975
v -0.343750 0.814328 -0.458283
v -0.343750 0.746691 -0.153190
v -0.343750 0.387199 -0.552975
v -0.343750 0.319561 -0.247882
v -0.343750 0.814328 -0.458283
v -0.031250 0.814328 -0.458283
v -0.343750 0.746691 -0.153190
v -0.031250 0.746691 -0.153190
v -0.343750 0.319561 -0.247882
v -0.031250 0.319561 -0.247882
v -0.343750 0.387199 -0.552975
v -0.031250 0.387199 -0.552975
v -0.343750 0.746691 -0.153190
v -0.031250 0.746691 -0.153190
v -0.343750 0.319561 -0.247882
v -0.031250 0.319561 -0.247882
v -0.031250 0.814328 -0.458283
v -0.343750 0.814328 -0.458283
v -0.031250 0.387199 -0.552975
v -0.343750 0.387199 -0.552975
vn 1.0000 -0.0000 -0.0000
vn -1.0000 -0.0000 -0.0000
vn -0.0000 0.9763 0.2164
vn -0.0000 -0.9763 -0.2164
vn -0.0000 -0.2164 0.9763
vn -0.0000 0.2164 -0.9763
vt 0.000244 0.812744
vt 0.000244 0.906006
vt 0.062256 0.812744
vt 0.062256 0.906006
vt 0.125244 0.812744
vt 0.125244 0.906006
vt 0.187256 0.812744
vt 0.187256 0.906006
vt 0.124756 0.812256
vt 0.124756 0.750244
vt 0.062744 0.812256
vt 0.062744 0.750244
vt 0.187256 0.750244
vt 0.187256 0.812256
vt 0.125244 0.750244
vt 0.125244 0.812256
vt 0.187744 0.812744
vt 0.187744 0.906006
vt 0.249756 0.812744
vt 0.249756 0.906006
vt 0.062744 0.812744
vt 0.062744 0.906006
vt 0.124756 0.812744
vt 0.124756 0.906006
s 0
g off
g Object_33_material_0
usemtl material_0
f 265/265/67 267/266/67 266/267/67
f 267/266/67 268/268/67 266/267/67
f 269/269/68 271/270/68 270/271/68
f 271/270/68 272/272/68 270/271/68
f 273/273/69 275/274/69 274/275/69
f 275/274/69 276/276/69 274/275/69
f 277/277/70 279/278/70 278/279/70
f 279/278/70 280/280/70 278/279/70
f 281/281/71 283/282/71 282/283/71
f 283/282/71 284/284/71 282/283/71
f 285/285/72 287/286/72 286/287/72
f 287/286/72 288/288/72 286/287/72
