# Blender 4.3.2
# www.blender.org
mtllib textured_cube.mtl
g Cube_Mesh
v 1.000000 1.000000 -1.000000
v 1.000000 1.000000 -1.000000
v 1.000000 1.000000 -1.000000
v 1.000000 -1.000000 -1.000000
v 1.000000 -1.000000 -1.000000
v 1.000000 -1.000000 -1.000000
v 1.000000 1.000000 1.000000
v 1.000000 1.000000 1.000000
v 1.000000 1.000000 1.000000
v 1.000000 -1.000000 1.000000
v 1.000000 -1.000000 1.000000
v 1.000000 -1.000000 1.000000
v -1.000000 1.000000 -1.000000
v -1.000000 1.000000 -1.000000
v -1.000000 1.000000 -1.000000
v -1.000000 -1.000000 -1.000000
v -1.000000 -1.000000 -1.000000
v -1.000000 -1.000000 -1.000000
v -1.000000 1.000000 1.000000
v -1.000000 1.000000 1.000000
v -1.000000 1.000000 1.000000
v -1.000000 -1.000000 1.000000
v -1.000000 -1.000000 1.000000
v -1.000000 -1.000000 1.000000
vn -0.0000 1.0000 -0.0000
vn -0.0000 -0.0000 1.0000
vn -1.0000 -0.0000 -0.0000
vn -0.0000 -1.0000 -0.0000
vn 1.0000 -0.0000 -0.0000
vn -0.0000 -0.0000 -1.0000
vt 0.494438 0.675383
vt 0.494438 0.987645
vt 0.257910 0.986628
vt 0.257910 0.674367
vt 0.246897 0.345471
vt 0.246897 0.657225
vt 0.010421 0.656886
vt 0.010421 0.345132
vt 0.989825 0.344851
vt 0.989825 0.657182
vt 0.753062 0.657521
vt 0.753062 0.345190
vt 0.494444 0.016251
vt 0.494444 0.328512
vt 0.257927 0.328512
vt 0.257927 0.016251
vt 0.494415 0.344128
vt 0.494415 0.657406
vt 0.257597 0.657745
vt 0.257597 0.344467
vt 0.742770 0.344981
vt 0.742770 0.657657
vt 0.505431 0.657319
vt 0.505431 0.344643
s 0
g off
g Cube_Material.004
usemtl Material.004
f 2/1/1 14/2/1 20/3/1
f 2/1/1 20/3/1 8/4/1
f 10/5/2 7/6/2 19/7/2
f 10/5/2 19/7/2 22/8/2
f 24/9/3 21/10/3 15/11/3
f 24/9/3 15/11/3 18/12/3
f 17/13/4 5/14/4 11/15/4
f 17/13/4 11/15/4 23/16/4
f 6/17/5 3/18/5 9/19/5
f 6/17/5 9/19/5 12/20/5
f 16/21/6 13/22/6 1/23/6
f 16/21/6 1/23/6 4/24/6
